<mxfile host="app.diagrams.net" modified="2023-11-08T06:31:49.533Z" agent="Mozilla/5.0 (Windows NT 10.0; Win64; x64) AppleWebKit/537.36 (KHTML, like Gecko) Chrome/118.0.0.0 Safari/537.36" etag="g3A4wl8Yk1sO44Chcv2q" version="22.0.8" type="github">
  <diagram name="第 1 页" id="2r5dknUTrqkaAnIuduQz">
    <mxGraphModel dx="840" dy="452" grid="0" gridSize="10" guides="1" tooltips="1" connect="1" arrows="1" fold="1" page="0" pageScale="1" pageWidth="827" pageHeight="1169" math="0" shadow="0">
      <root>
        <mxCell id="0" />
        <mxCell id="1" parent="0" />
        <mxCell id="dCYo8yhALJQxt7b84yej-1" value="struct uart_8250_port" style="swimlane;fontStyle=0;childLayout=stackLayout;horizontal=1;startSize=30;horizontalStack=0;resizeParent=1;resizeParentMax=0;resizeLast=0;collapsible=1;marginBottom=0;whiteSpace=wrap;html=1;align=left;" vertex="1" parent="1">
          <mxGeometry x="130" y="150" width="290" height="890" as="geometry" />
        </mxCell>
        <mxCell id="dCYo8yhALJQxt7b84yej-2" value="struct uart_port port;" style="text;strokeColor=none;fillColor=none;align=left;verticalAlign=middle;spacingLeft=4;spacingRight=4;overflow=hidden;points=[[0,0.5],[1,0.5]];portConstraint=eastwest;rotatable=0;whiteSpace=wrap;html=1;" vertex="1" parent="dCYo8yhALJQxt7b84yej-1">
          <mxGeometry y="30" width="290" height="30" as="geometry" />
        </mxCell>
        <mxCell id="dCYo8yhALJQxt7b84yej-3" value="struct timer_list timer;" style="text;strokeColor=none;fillColor=none;align=left;verticalAlign=middle;spacingLeft=4;spacingRight=4;overflow=hidden;points=[[0,0.5],[1,0.5]];portConstraint=eastwest;rotatable=0;whiteSpace=wrap;html=1;" vertex="1" parent="dCYo8yhALJQxt7b84yej-1">
          <mxGeometry y="60" width="290" height="30" as="geometry" />
        </mxCell>
        <mxCell id="dCYo8yhALJQxt7b84yej-4" value="struct list_head list;&lt;span style=&quot;white-space: pre;&quot;&gt;&#x9;&lt;/span&gt;&lt;span style=&quot;white-space: pre;&quot;&gt;&#x9;&lt;/span&gt;//ports on this IRQ" style="text;strokeColor=none;fillColor=none;align=left;verticalAlign=middle;spacingLeft=4;spacingRight=4;overflow=hidden;points=[[0,0.5],[1,0.5]];portConstraint=eastwest;rotatable=0;whiteSpace=wrap;html=1;" vertex="1" parent="dCYo8yhALJQxt7b84yej-1">
          <mxGeometry y="90" width="290" height="30" as="geometry" />
        </mxCell>
        <mxCell id="dCYo8yhALJQxt7b84yej-11" value="u32 capabilities;" style="text;strokeColor=none;fillColor=none;align=left;verticalAlign=top;spacingLeft=4;spacingRight=4;overflow=hidden;rotatable=0;points=[[0,0.5],[1,0.5]];portConstraint=eastwest;whiteSpace=wrap;html=1;" vertex="1" parent="dCYo8yhALJQxt7b84yej-1">
          <mxGeometry y="120" width="290" height="26" as="geometry" />
        </mxCell>
        <mxCell id="dCYo8yhALJQxt7b84yej-12" value="unsigned short bugs;" style="text;strokeColor=none;fillColor=none;align=left;verticalAlign=top;spacingLeft=4;spacingRight=4;overflow=hidden;rotatable=0;points=[[0,0.5],[1,0.5]];portConstraint=eastwest;whiteSpace=wrap;html=1;" vertex="1" parent="dCYo8yhALJQxt7b84yej-1">
          <mxGeometry y="146" width="290" height="26" as="geometry" />
        </mxCell>
        <mxCell id="dCYo8yhALJQxt7b84yej-13" value="bool fifo_bugs;" style="text;strokeColor=none;fillColor=none;align=left;verticalAlign=top;spacingLeft=4;spacingRight=4;overflow=hidden;rotatable=0;points=[[0,0.5],[1,0.5]];portConstraint=eastwest;whiteSpace=wrap;html=1;" vertex="1" parent="dCYo8yhALJQxt7b84yej-1">
          <mxGeometry y="172" width="290" height="26" as="geometry" />
        </mxCell>
        <mxCell id="dCYo8yhALJQxt7b84yej-14" value="unsigned tx_loadsz;" style="text;strokeColor=none;fillColor=none;align=left;verticalAlign=top;spacingLeft=4;spacingRight=4;overflow=hidden;rotatable=0;points=[[0,0.5],[1,0.5]];portConstraint=eastwest;whiteSpace=wrap;html=1;" vertex="1" parent="dCYo8yhALJQxt7b84yej-1">
          <mxGeometry y="198" width="290" height="26" as="geometry" />
        </mxCell>
        <mxCell id="dCYo8yhALJQxt7b84yej-15" value="unsigned char acr;" style="text;strokeColor=none;fillColor=none;align=left;verticalAlign=top;spacingLeft=4;spacingRight=4;overflow=hidden;rotatable=0;points=[[0,0.5],[1,0.5]];portConstraint=eastwest;whiteSpace=wrap;html=1;" vertex="1" parent="dCYo8yhALJQxt7b84yej-1">
          <mxGeometry y="224" width="290" height="26" as="geometry" />
        </mxCell>
        <mxCell id="dCYo8yhALJQxt7b84yej-16" value="unsigned char fcr;" style="text;strokeColor=none;fillColor=none;align=left;verticalAlign=top;spacingLeft=4;spacingRight=4;overflow=hidden;rotatable=0;points=[[0,0.5],[1,0.5]];portConstraint=eastwest;whiteSpace=wrap;html=1;" vertex="1" parent="dCYo8yhALJQxt7b84yej-1">
          <mxGeometry y="250" width="290" height="26" as="geometry" />
        </mxCell>
        <mxCell id="dCYo8yhALJQxt7b84yej-17" value="unsigned char ier;" style="text;strokeColor=none;fillColor=none;align=left;verticalAlign=top;spacingLeft=4;spacingRight=4;overflow=hidden;rotatable=0;points=[[0,0.5],[1,0.5]];portConstraint=eastwest;whiteSpace=wrap;html=1;" vertex="1" parent="dCYo8yhALJQxt7b84yej-1">
          <mxGeometry y="276" width="290" height="26" as="geometry" />
        </mxCell>
        <mxCell id="dCYo8yhALJQxt7b84yej-18" value="unsigned char lcr;" style="text;strokeColor=none;fillColor=none;align=left;verticalAlign=top;spacingLeft=4;spacingRight=4;overflow=hidden;rotatable=0;points=[[0,0.5],[1,0.5]];portConstraint=eastwest;whiteSpace=wrap;html=1;" vertex="1" parent="dCYo8yhALJQxt7b84yej-1">
          <mxGeometry y="302" width="290" height="26" as="geometry" />
        </mxCell>
        <mxCell id="dCYo8yhALJQxt7b84yej-19" value="unsigned char mcr;" style="text;strokeColor=none;fillColor=none;align=left;verticalAlign=top;spacingLeft=4;spacingRight=4;overflow=hidden;rotatable=0;points=[[0,0.5],[1,0.5]];portConstraint=eastwest;whiteSpace=wrap;html=1;" vertex="1" parent="dCYo8yhALJQxt7b84yej-1">
          <mxGeometry y="328" width="290" height="26" as="geometry" />
        </mxCell>
        <mxCell id="dCYo8yhALJQxt7b84yej-20" value="unsigned char mcr_mask;" style="text;strokeColor=none;fillColor=none;align=left;verticalAlign=top;spacingLeft=4;spacingRight=4;overflow=hidden;rotatable=0;points=[[0,0.5],[1,0.5]];portConstraint=eastwest;whiteSpace=wrap;html=1;" vertex="1" parent="dCYo8yhALJQxt7b84yej-1">
          <mxGeometry y="354" width="290" height="26" as="geometry" />
        </mxCell>
        <mxCell id="dCYo8yhALJQxt7b84yej-21" value="unsigned char mcr_force;" style="text;strokeColor=none;fillColor=none;align=left;verticalAlign=middle;spacingLeft=4;spacingRight=4;overflow=hidden;points=[[0,0.5],[1,0.5]];portConstraint=eastwest;rotatable=0;whiteSpace=wrap;html=1;" vertex="1" parent="dCYo8yhALJQxt7b84yej-1">
          <mxGeometry y="380" width="290" height="30" as="geometry" />
        </mxCell>
        <mxCell id="dCYo8yhALJQxt7b84yej-22" value="unsigned char cur_iotype;" style="text;strokeColor=none;fillColor=none;align=left;verticalAlign=middle;spacingLeft=4;spacingRight=4;overflow=hidden;points=[[0,0.5],[1,0.5]];portConstraint=eastwest;rotatable=0;whiteSpace=wrap;html=1;" vertex="1" parent="dCYo8yhALJQxt7b84yej-1">
          <mxGeometry y="410" width="290" height="30" as="geometry" />
        </mxCell>
        <mxCell id="dCYo8yhALJQxt7b84yej-23" value="unsigned int&amp;nbsp; rpm_tx_active;" style="text;strokeColor=none;fillColor=none;align=left;verticalAlign=middle;spacingLeft=4;spacingRight=4;overflow=hidden;points=[[0,0.5],[1,0.5]];portConstraint=eastwest;rotatable=0;whiteSpace=wrap;html=1;" vertex="1" parent="dCYo8yhALJQxt7b84yej-1">
          <mxGeometry y="440" width="290" height="30" as="geometry" />
        </mxCell>
        <mxCell id="dCYo8yhALJQxt7b84yej-24" value="unsigned char canary;" style="text;strokeColor=none;fillColor=none;align=left;verticalAlign=middle;spacingLeft=4;spacingRight=4;overflow=hidden;points=[[0,0.5],[1,0.5]];portConstraint=eastwest;rotatable=0;whiteSpace=wrap;html=1;" vertex="1" parent="dCYo8yhALJQxt7b84yej-1">
          <mxGeometry y="470" width="290" height="30" as="geometry" />
        </mxCell>
        <mxCell id="dCYo8yhALJQxt7b84yej-25" value="unsigned char probe;" style="text;strokeColor=none;fillColor=none;align=left;verticalAlign=middle;spacingLeft=4;spacingRight=4;overflow=hidden;points=[[0,0.5],[1,0.5]];portConstraint=eastwest;rotatable=0;whiteSpace=wrap;html=1;" vertex="1" parent="dCYo8yhALJQxt7b84yej-1">
          <mxGeometry y="500" width="290" height="30" as="geometry" />
        </mxCell>
        <mxCell id="dCYo8yhALJQxt7b84yej-26" value="struct mctrl_gpios *gpios;" style="text;strokeColor=none;fillColor=none;align=left;verticalAlign=middle;spacingLeft=4;spacingRight=4;overflow=hidden;points=[[0,0.5],[1,0.5]];portConstraint=eastwest;rotatable=0;whiteSpace=wrap;html=1;" vertex="1" parent="dCYo8yhALJQxt7b84yej-1">
          <mxGeometry y="530" width="290" height="30" as="geometry" />
        </mxCell>
        <mxCell id="dCYo8yhALJQxt7b84yej-27" value="unsigned char lsr_saved_flags;" style="text;strokeColor=none;fillColor=none;align=left;verticalAlign=middle;spacingLeft=4;spacingRight=4;overflow=hidden;points=[[0,0.5],[1,0.5]];portConstraint=eastwest;rotatable=0;whiteSpace=wrap;html=1;" vertex="1" parent="dCYo8yhALJQxt7b84yej-1">
          <mxGeometry y="560" width="290" height="30" as="geometry" />
        </mxCell>
        <mxCell id="dCYo8yhALJQxt7b84yej-28" value="unsigned char msr_saved_flags;" style="text;strokeColor=none;fillColor=none;align=left;verticalAlign=middle;spacingLeft=4;spacingRight=4;overflow=hidden;points=[[0,0.5],[1,0.5]];portConstraint=eastwest;rotatable=0;whiteSpace=wrap;html=1;" vertex="1" parent="dCYo8yhALJQxt7b84yej-1">
          <mxGeometry y="590" width="290" height="30" as="geometry" />
        </mxCell>
        <mxCell id="dCYo8yhALJQxt7b84yej-29" value="struct uart_8250_dma *dma;" style="text;strokeColor=none;fillColor=none;align=left;verticalAlign=middle;spacingLeft=4;spacingRight=4;overflow=hidden;points=[[0,0.5],[1,0.5]];portConstraint=eastwest;rotatable=0;whiteSpace=wrap;html=1;" vertex="1" parent="dCYo8yhALJQxt7b84yej-1">
          <mxGeometry y="620" width="290" height="30" as="geometry" />
        </mxCell>
        <mxCell id="dCYo8yhALJQxt7b84yej-30" value="const struct uart_8250_ops *ops;" style="text;strokeColor=none;fillColor=none;align=left;verticalAlign=middle;spacingLeft=4;spacingRight=4;overflow=hidden;points=[[0,0.5],[1,0.5]];portConstraint=eastwest;rotatable=0;whiteSpace=wrap;html=1;" vertex="1" parent="dCYo8yhALJQxt7b84yej-1">
          <mxGeometry y="650" width="290" height="30" as="geometry" />
        </mxCell>
        <mxCell id="dCYo8yhALJQxt7b84yej-31" value="int&lt;span style=&quot;white-space: pre;&quot;&gt;&#x9;&lt;/span&gt;(*dl_read) (struct uart_8250_port *);" style="text;strokeColor=none;fillColor=none;align=left;verticalAlign=middle;spacingLeft=4;spacingRight=4;overflow=hidden;points=[[0,0.5],[1,0.5]];portConstraint=eastwest;rotatable=0;whiteSpace=wrap;html=1;" vertex="1" parent="dCYo8yhALJQxt7b84yej-1">
          <mxGeometry y="680" width="290" height="30" as="geometry" />
        </mxCell>
        <mxCell id="dCYo8yhALJQxt7b84yej-32" value="void (*dl_write) (struct uart_8250_port *, int);" style="text;strokeColor=none;fillColor=none;align=left;verticalAlign=middle;spacingLeft=4;spacingRight=4;overflow=hidden;points=[[0,0.5],[1,0.5]];portConstraint=eastwest;rotatable=0;whiteSpace=wrap;html=1;" vertex="1" parent="dCYo8yhALJQxt7b84yej-1">
          <mxGeometry y="710" width="290" height="30" as="geometry" />
        </mxCell>
        <mxCell id="dCYo8yhALJQxt7b84yej-33" value="struct uart_8250_em485 *em485;" style="text;strokeColor=none;fillColor=none;align=left;verticalAlign=middle;spacingLeft=4;spacingRight=4;overflow=hidden;points=[[0,0.5],[1,0.5]];portConstraint=eastwest;rotatable=0;whiteSpace=wrap;html=1;" vertex="1" parent="dCYo8yhALJQxt7b84yej-1">
          <mxGeometry y="740" width="290" height="30" as="geometry" />
        </mxCell>
        <mxCell id="dCYo8yhALJQxt7b84yej-34" value="void (*rs485_start_tx) (struct uart_8250_port *);&amp;nbsp;" style="text;strokeColor=none;fillColor=none;align=left;verticalAlign=middle;spacingLeft=4;spacingRight=4;overflow=hidden;points=[[0,0.5],[1,0.5]];portConstraint=eastwest;rotatable=0;whiteSpace=wrap;html=1;" vertex="1" parent="dCYo8yhALJQxt7b84yej-1">
          <mxGeometry y="770" width="290" height="30" as="geometry" />
        </mxCell>
        <mxCell id="dCYo8yhALJQxt7b84yej-35" value="void (*rs485_stop_tx) (struct uart_8250_port *);" style="text;strokeColor=none;fillColor=none;align=left;verticalAlign=middle;spacingLeft=4;spacingRight=4;overflow=hidden;points=[[0,0.5],[1,0.5]];portConstraint=eastwest;rotatable=0;whiteSpace=wrap;html=1;" vertex="1" parent="dCYo8yhALJQxt7b84yej-1">
          <mxGeometry y="800" width="290" height="30" as="geometry" />
        </mxCell>
        <mxCell id="dCYo8yhALJQxt7b84yej-36" value="&lt;font color=&quot;#298dff&quot;&gt;struct delayed_work overrun_backoff;&lt;/font&gt;" style="text;strokeColor=none;fillColor=none;align=left;verticalAlign=middle;spacingLeft=4;spacingRight=4;overflow=hidden;points=[[0,0.5],[1,0.5]];portConstraint=eastwest;rotatable=0;whiteSpace=wrap;html=1;" vertex="1" parent="dCYo8yhALJQxt7b84yej-1">
          <mxGeometry y="830" width="290" height="30" as="geometry" />
        </mxCell>
        <mxCell id="dCYo8yhALJQxt7b84yej-37" value="u32 overrun_backoff_time_ms;" style="text;strokeColor=none;fillColor=none;align=left;verticalAlign=middle;spacingLeft=4;spacingRight=4;overflow=hidden;points=[[0,0.5],[1,0.5]];portConstraint=eastwest;rotatable=0;whiteSpace=wrap;html=1;" vertex="1" parent="dCYo8yhALJQxt7b84yej-1">
          <mxGeometry y="860" width="290" height="30" as="geometry" />
        </mxCell>
        <mxCell id="dCYo8yhALJQxt7b84yej-38" value="struct uart_port" style="swimlane;fontStyle=0;childLayout=stackLayout;horizontal=1;startSize=30;horizontalStack=0;resizeParent=1;resizeParentMax=0;resizeLast=0;collapsible=1;marginBottom=0;whiteSpace=wrap;html=1;align=left;" vertex="1" parent="1">
          <mxGeometry x="654" y="221" width="307" height="180" as="geometry" />
        </mxCell>
        <mxCell id="dCYo8yhALJQxt7b84yej-39" value="spinlock_t lock;" style="text;strokeColor=none;fillColor=none;align=left;verticalAlign=middle;spacingLeft=4;spacingRight=4;overflow=hidden;points=[[0,0.5],[1,0.5]];portConstraint=eastwest;rotatable=0;whiteSpace=wrap;html=1;" vertex="1" parent="dCYo8yhALJQxt7b84yej-38">
          <mxGeometry y="30" width="307" height="30" as="geometry" />
        </mxCell>
        <mxCell id="dCYo8yhALJQxt7b84yej-40" value="unsigned long iobase;" style="text;strokeColor=none;fillColor=none;align=left;verticalAlign=middle;spacingLeft=4;spacingRight=4;overflow=hidden;points=[[0,0.5],[1,0.5]];portConstraint=eastwest;rotatable=0;whiteSpace=wrap;html=1;" vertex="1" parent="dCYo8yhALJQxt7b84yej-38">
          <mxGeometry y="60" width="307" height="30" as="geometry" />
        </mxCell>
        <mxCell id="dCYo8yhALJQxt7b84yej-41" value="unsigned char&amp;nbsp; __iomen *membase;" style="text;strokeColor=none;fillColor=none;align=left;verticalAlign=middle;spacingLeft=4;spacingRight=4;overflow=hidden;points=[[0,0.5],[1,0.5]];portConstraint=eastwest;rotatable=0;whiteSpace=wrap;html=1;" vertex="1" parent="dCYo8yhALJQxt7b84yej-38">
          <mxGeometry y="90" width="307" height="30" as="geometry" />
        </mxCell>
        <mxCell id="dCYo8yhALJQxt7b84yej-43" value="unsigned int&lt;span style=&quot;white-space: pre;&quot;&gt;&#x9;&lt;/span&gt;(*serial_in) (struct uart_port *, int);" style="text;strokeColor=none;fillColor=none;align=left;verticalAlign=middle;spacingLeft=4;spacingRight=4;overflow=hidden;points=[[0,0.5],[1,0.5]];portConstraint=eastwest;rotatable=0;whiteSpace=wrap;html=1;" vertex="1" parent="dCYo8yhALJQxt7b84yej-38">
          <mxGeometry y="120" width="307" height="30" as="geometry" />
        </mxCell>
        <mxCell id="dCYo8yhALJQxt7b84yej-44" value="void (*serial_out) (struct uart_port *, int, int);" style="text;strokeColor=none;fillColor=none;align=left;verticalAlign=middle;spacingLeft=4;spacingRight=4;overflow=hidden;points=[[0,0.5],[1,0.5]];portConstraint=eastwest;rotatable=0;whiteSpace=wrap;html=1;" vertex="1" parent="dCYo8yhALJQxt7b84yej-38">
          <mxGeometry y="150" width="307" height="30" as="geometry" />
        </mxCell>
        <mxCell id="dCYo8yhALJQxt7b84yej-42" style="edgeStyle=orthogonalEdgeStyle;rounded=0;orthogonalLoop=1;jettySize=auto;html=1;exitX=1;exitY=0.5;exitDx=0;exitDy=0;entryX=0.5;entryY=0;entryDx=0;entryDy=0;" edge="1" parent="1" source="dCYo8yhALJQxt7b84yej-2" target="dCYo8yhALJQxt7b84yej-38">
          <mxGeometry relative="1" as="geometry" />
        </mxCell>
      </root>
    </mxGraphModel>
  </diagram>
</mxfile>
